<svg width="67" height="58" viewBox="0 0 67 58" fill="none" xmlns="http://www.w3.org/2000/svg">
<path d="M63.8541 31.9271C62.9419 31.9271 62.3339 32.5353 62.3339 33.4474V53.2118C62.3339 54.124 61.7257 54.7321 60.8136 54.7321H6.08137C5.16915 54.7321 4.56108 54.1239 4.56108 53.2118V33.4474C4.56108 32.5352 3.95289 31.9271 3.0408 31.9271C2.1287 31.9271 1.52051 32.5353 1.52051 33.4474V53.2118C1.52051 55.7964 3.49691 57.7728 6.0815 57.7728H60.8136C63.3982 57.7728 65.3746 55.7964 65.3746 53.2118V33.4474C65.3746 32.5352 64.7664 31.9271 63.8541 31.9271Z" fill="#004272"/>
<path d="M62.3338 10.6423H4.56099C1.9764 10.6423 0 12.6187 0 15.2033V24.9335C0 27.0619 1.52029 28.8863 3.49682 29.3424L27.3661 34.6636V39.5286C27.3661 40.4408 27.9743 41.0489 28.8864 41.0489H38.0084C38.9206 41.0489 39.5287 40.4407 39.5287 39.5286V34.6636L63.3979 29.3424C65.3745 28.8863 66.8948 27.0619 66.8948 24.9334V15.2032C66.8948 12.6187 64.9184 10.6423 62.3338 10.6423ZM36.4881 38.0083H30.4068V31.927H36.4881V38.0083ZM63.8541 24.9334C63.8541 25.6935 63.3979 26.3017 62.6378 26.4537L39.5287 31.6229V30.4066C39.5287 29.4944 38.9205 28.8863 38.0084 28.8863H28.8864C27.9742 28.8863 27.3661 29.4945 27.3661 30.4066V31.6229L4.25696 26.4538C3.49682 26.3017 3.04071 25.6937 3.04071 24.9335V15.2033C3.04071 14.2911 3.6489 13.683 4.56099 13.683H62.3338C63.246 13.683 63.8541 14.2912 63.8541 15.2033V24.9334Z" fill="#004272"/>
<path d="M41.0496 0H25.8462C23.2616 0 21.2852 1.9764 21.2852 4.56099V6.08128C21.2852 6.99351 21.8934 7.60157 22.8054 7.60157C23.7175 7.60157 24.3257 6.99338 24.3257 6.08128V4.56099C24.3257 3.64877 24.9339 3.04071 25.846 3.04071H41.0494C41.9616 3.04071 42.5697 3.6489 42.5697 4.56099V6.08128C42.5697 6.99351 43.1779 7.60157 44.09 7.60157C45.0022 7.60157 45.6103 6.99338 45.6103 6.08128V4.56099C45.6105 1.9764 43.6341 0 41.0496 0Z" fill="#004272"/>
</svg>
