<svg width="48" height="60" viewBox="0 0 48 60" fill="none" xmlns="http://www.w3.org/2000/svg">
<path d="M45.8524 24.314C45.0244 24.314 44.3524 24.986 44.3524 25.814V49.482C44.3484 53.356 41.2084 56.496 37.3344 56.5H10.6664C6.79244 56.496 3.65244 53.356 3.64844 49.482V10.518C3.65244 6.644 6.79244 3.504 10.6664 3.5H30.5524C31.2924 3.502 31.8904 4.1 31.8904 4.84V12.742C31.8944 16.144 34.6504 18.9 38.0524 18.904H43.7364C46.8724 19 48.5624 14.878 46.2864 12.736L41.7584 8.224C41.1704 7.64 40.2204 7.64 39.6364 8.228C39.0524 8.816 39.0524 9.766 39.6404 10.35L44.1684 14.862C44.5544 15.226 44.2664 15.92 43.7364 15.904H38.0524C36.3064 15.902 34.8924 14.488 34.8904 12.742V4.84C34.8884 2.444 32.9484 0.504 30.5524 0.5H10.6664C5.13644 0.506 0.654438 4.988 0.648438 10.518V49.482C0.654438 55.012 5.13644 59.494 10.6664 59.5H37.3344C42.8644 59.494 47.3464 55.012 47.3524 49.482V25.814C47.3524 24.986 46.6804 24.314 45.8524 24.314Z" fill="#004272"/>
<path d="M12.8945 31.554C15.8385 31.504 15.8365 27.126 12.8945 27.074C9.95052 27.124 9.95052 31.504 12.8945 31.554Z" fill="#004272"/>
<path d="M12.8945 39.942C15.8385 39.892 15.8385 35.512 12.8945 35.462C9.95052 35.512 9.95052 39.892 12.8945 39.942Z" fill="#004272"/>
<path d="M15.1344 46.09C15.0844 43.144 10.7024 43.142 10.6504 46.088C10.6984 49.036 15.0844 49.038 15.1344 46.09Z" fill="#004272"/>
<path d="M37.3489 27.458H20.2149C18.2589 27.466 18.2489 30.45 20.2149 30.458H37.3489C39.3049 30.45 39.3149 27.466 37.3489 27.458Z" fill="#004272"/>
<path d="M37.3489 36.2H20.2149C18.2589 36.208 18.2489 39.192 20.2149 39.2H37.3489C39.3049 39.192 39.3149 36.208 37.3489 36.2Z" fill="#004272"/>
<path d="M20.2149 44.946C18.2589 44.954 18.2489 47.938 20.2149 47.946H37.3489C39.3049 47.938 39.3149 44.954 37.3489 44.946H20.2149Z" fill="#004272"/>
</svg>
