<svg width="28" height="28" viewBox="0 0 28 28" fill="none" xmlns="http://www.w3.org/2000/svg">
<path d="M20.4168 10.4988C19.3723 10.4984 18.344 10.7567 17.4238 11.2508C17.3398 11.0296 17.1905 10.8392 16.9958 10.7049C16.801 10.5706 16.57 10.4987 16.3334 10.4988H11.6668C11.5135 10.4987 11.3618 10.5288 11.2202 10.5874C11.0786 10.646 10.95 10.732 10.8416 10.8403C10.7332 10.9487 10.6473 11.0773 10.5887 11.2189C10.5301 11.3605 10.5 11.5122 10.5001 11.6655V25.6655C10.5 25.8187 10.5301 25.9705 10.5887 26.112C10.6473 26.2536 10.7332 26.3823 10.8416 26.4906C10.95 26.599 11.0786 26.6849 11.2202 26.7435C11.3618 26.8021 11.5135 26.8322 11.6668 26.8321H16.3334C16.4867 26.8322 16.6384 26.8021 16.78 26.7435C16.9216 26.6849 17.0502 26.599 17.1586 26.4906C17.2669 26.3823 17.3529 26.2536 17.4115 26.112C17.4701 25.9705 17.5002 25.8187 17.5001 25.6655V19.2488C17.5001 18.9394 17.623 18.6426 17.8418 18.4239C18.0606 18.2051 18.3573 18.0821 18.6668 18.0821C18.9762 18.0821 19.2729 18.2051 19.4917 18.4239C19.7105 18.6426 19.8334 18.9394 19.8334 19.2488V25.6655C19.8333 25.8187 19.8634 25.9705 19.922 26.112C19.9806 26.2536 20.0666 26.3823 20.1749 26.4906C20.2833 26.599 20.4119 26.6849 20.5535 26.7435C20.6951 26.8021 20.8469 26.8322 21.0001 26.8321H25.6668C25.82 26.8322 25.9717 26.8021 26.1133 26.7435C26.2549 26.6849 26.3836 26.599 26.4919 26.4906C26.6003 26.3823 26.6862 26.2536 26.7448 26.112C26.8034 25.9705 26.8335 25.8187 26.8334 25.6655V16.9155C26.8313 15.2143 26.1546 13.5834 24.9517 12.3805C23.7488 11.1776 22.1179 10.5009 20.4168 10.4988ZM24.5001 24.4988H22.1668V19.2488C22.1668 18.3206 21.798 17.4303 21.1416 16.7739C20.4853 16.1176 19.595 15.7488 18.6668 15.7488C17.7385 15.7488 16.8483 16.1176 16.1919 16.7739C15.5355 17.4303 15.1668 18.3206 15.1668 19.2488V24.4988H12.8334V12.8321H15.1668V13.6525C15.1669 13.8942 15.2421 14.1299 15.3819 14.3271C15.5218 14.5243 15.7194 14.6731 15.9475 14.7532C16.1756 14.8332 16.4229 14.8404 16.6553 14.7739C16.8877 14.7073 17.0937 14.5703 17.2449 14.3816C17.7684 13.7167 18.4866 13.2318 19.2991 12.9947C20.1115 12.7577 20.9778 12.7802 21.7768 13.0593C22.5758 13.3384 23.2677 13.86 23.7559 14.5513C24.2442 15.2426 24.5043 16.0691 24.5001 16.9155V24.4988ZM8.16675 10.4988H3.50009C3.34685 10.4987 3.19511 10.5288 3.05352 10.5874C2.91193 10.646 2.78329 10.732 2.67494 10.8403C2.56658 10.9487 2.48065 11.0773 2.42205 11.2189C2.36345 11.3605 2.33333 11.5122 2.33342 11.6655V25.6655C2.33333 25.8187 2.36345 25.9705 2.42205 26.112C2.48065 26.2536 2.56658 26.3823 2.67493 26.4906C2.78328 26.599 2.91193 26.6849 3.05352 26.7435C3.19511 26.8021 3.34685 26.8322 3.50009 26.8321H8.16675C8.31999 26.8322 8.47174 26.8021 8.61332 26.7435C8.75491 26.6849 8.88356 26.599 8.99191 26.4906C9.10026 26.3823 9.1862 26.2536 9.24479 26.112C9.30339 25.9705 9.33351 25.8187 9.33342 25.6655V11.6655C9.33351 11.5122 9.30339 11.3605 9.24479 11.2189C9.18619 11.0773 9.10026 10.9487 8.99191 10.8403C8.88355 10.732 8.75491 10.646 8.61332 10.5874C8.47174 10.5288 8.31999 10.4987 8.16675 10.4988ZM7.00009 24.4988H4.66675V12.8321H7.00009V24.4988ZM5.85051 1.79898C5.33993 1.76841 4.82847 1.84202 4.34724 2.01533C3.866 2.18863 3.42504 2.45801 3.05117 2.80708C2.67731 3.15615 2.37836 3.57762 2.17249 4.04586C1.96662 4.51409 1.85815 5.01931 1.85366 5.53078C1.84917 6.04226 1.94877 6.5493 2.14639 7.02107C2.34401 7.49285 2.63552 7.9195 3.0032 8.27507C3.37088 8.63065 3.80705 8.90773 4.28517 9.08945C4.76329 9.27117 5.27339 9.35374 5.78442 9.33214H5.81746C6.32939 9.36255 6.84214 9.28826 7.32439 9.1138C7.80664 8.93935 8.24825 8.6684 8.62225 8.3175C8.99624 7.96661 9.29476 7.54315 9.49956 7.07298C9.70437 6.60282 9.81116 6.09584 9.81341 5.58301C9.81566 5.07018 9.71332 4.56228 9.51264 4.09035C9.31197 3.61841 9.01718 3.19234 8.64628 2.83818C8.27538 2.48402 7.83616 2.2092 7.35546 2.03053C6.87476 1.85185 6.36268 1.77306 5.8505 1.79898H5.85051ZM5.81747 6.99881H5.78442C5.58267 7.02331 5.378 7.00438 5.18416 6.94331C4.99032 6.88223 4.81177 6.78041 4.6605 6.64468C4.50923 6.50895 4.38874 6.34245 4.30709 6.15633C4.22544 5.97021 4.18453 5.76879 4.1871 5.56557C4.1871 4.69512 4.83993 4.1323 5.85051 4.1323C6.05433 4.10513 6.2616 4.12195 6.45836 4.18163C6.65513 4.24131 6.83682 4.34246 6.9912 4.47828C7.14559 4.61409 7.26907 4.78141 7.35334 4.96896C7.43761 5.15652 7.48071 5.35996 7.47974 5.56557C7.47974 6.43601 6.82691 6.99881 5.81747 6.99881Z" fill="#004272"/>
</svg>
