<svg width="24" height="24" viewBox="0 0 24 24" fill="none" xmlns="http://www.w3.org/2000/svg">
<path d="M20 19.75H4C3.27147 19.7474 2.57352 19.4568 2.05837 18.9416C1.54321 18.4265 1.25263 17.7285 1.25 17V7C1.25263 6.27147 1.54321 5.57352 2.05837 5.05837C2.57352 4.54321 3.27147 4.25263 4 4.25H20C20.7285 4.25263 21.4265 4.54321 21.9416 5.05837C22.4568 5.57352 22.7474 6.27147 22.75 7V17C22.7474 17.7285 22.4568 18.4265 21.9416 18.9416C21.4265 19.4568 20.7285 19.7474 20 19.75V19.75ZM4 5.75C3.66848 5.75 3.35054 5.8817 3.11612 6.11612C2.8817 6.35054 2.75 6.66848 2.75 7V17C2.75 17.3315 2.8817 17.6495 3.11612 17.8839C3.35054 18.1183 3.66848 18.25 4 18.25H20C20.3315 18.25 20.6495 18.1183 20.8839 17.8839C21.1183 17.6495 21.25 17.3315 21.25 17V7C21.25 6.66848 21.1183 6.35054 20.8839 6.11612C20.6495 5.8817 20.3315 5.75 20 5.75H4Z" fill="#3285C0"/>
<path d="M11.9997 13.3498C11.4194 13.3498 10.8497 13.1944 10.3497 12.8998L1.61973 7.70978C1.45663 7.60812 1.33809 7.44845 1.28799 7.2629C1.2379 7.07735 1.25996 6.87971 1.34973 6.70978C1.44958 6.54458 1.61002 6.42493 1.79684 6.37635C1.98366 6.32778 2.18207 6.35413 2.34973 6.44978L11.0897 11.6298C11.3548 11.7914 11.6593 11.877 11.9697 11.877C12.2802 11.877 12.5847 11.7914 12.8497 11.6298L21.5897 6.44978C21.7574 6.35413 21.9558 6.32778 22.1426 6.37635C22.3294 6.42493 22.4899 6.54458 22.5897 6.70978C22.6795 6.87971 22.7016 7.07735 22.6515 7.2629C22.6014 7.44845 22.4828 7.60812 22.3197 7.70978L13.6497 12.8998C13.1498 13.1944 12.58 13.3498 11.9997 13.3498V13.3498Z" fill="#3285C0"/>
</svg>
