<svg width="86" height="44" viewBox="0 0 86 44" fill="none" xmlns="http://www.w3.org/2000/svg">
<path d="M59.6904 18.6977L62.841 28.3858C63.0644 29.0752 63.9086 29.3207 64.4644 28.8585L73.872 21.0505C73.872 21.0505 63.8748 17.1283 63.8748 17.3424C63.8748 17.5566 59.6904 18.6977 59.6904 18.6977Z" fill="#B5D1DB"/>
<path d="M84.5137 0.0788676C78.3683 2.52308 58.5375 10.694 51.0311 13.7884C50.0389 14.1984 50.0986 15.6268 51.1194 15.9532L59.6907 18.6977L62.8309 28.3545C62.9582 28.7435 63.275 28.9942 63.6309 29.0595C63.9192 29.1144 64.3452 21.2386 64.3452 21.2386C64.3452 21.2386 73.3554 27.9575 77.6281 31.1277C78.68 31.9085 80.1839 31.3209 80.4333 30.0309C81.706 23.4347 84.8903 6.94147 85.9786 1.30098C86.1449 0.454903 85.3137 -0.239716 84.5137 0.0788676Z" fill="white"/>
<path d="M63.6313 29.0623C63.9196 29.1171 64.3456 21.2413 64.3456 21.2413L79.1479 7.26278C79.2492 7.16877 79.1272 7.00948 79.0103 7.07999L59.6885 18.6978L62.8287 28.3546C62.9586 28.7437 63.2754 28.9944 63.6313 29.0623Z" fill="#D6E2EA"/>
<path d="M1 41.4395C6.54188 42.2097 28.7179 47.937 38.7401 31.1643C39.8336 26.6989 38.8622 21.9123 35.3402 18.6534C30.8909 14.5353 26.0052 18.2982 27.2078 24.0484C29.1818 33.4936 40.657 40.4868 49.3763 40.586C54.4152 40.6435 59.145 38.2123 60.958 33.2481" stroke="#FFD066" stroke-miterlimit="10" stroke-dasharray="5 5"/>
</svg>
