<svg width="62" height="54" viewBox="0 0 62 54" fill="none" xmlns="http://www.w3.org/2000/svg">
<path d="M49.5237 43.5206C48.7331 43.5206 48.0411 42.9401 47.9246 42.1349C47.7985 41.2505 48.4113 40.4308 49.2957 40.303C52.62 39.8245 55.8051 38.7832 58.764 37.2036C59.5578 36.7848 60.5312 37.0839 60.9532 37.8697C61.3736 38.6571 61.0744 39.6385 60.287 40.0589C56.9951 41.8132 53.451 42.9725 49.7565 43.506C49.6773 43.5157 49.5997 43.5206 49.5237 43.5206Z" fill="#004272"/>
<path d="M32.6102 29.0062C32.3063 29.0062 32.0007 28.9205 31.7291 28.7443C30.9805 28.256 30.7687 27.2552 31.2569 26.5066C33.548 22.9932 37.4187 20.8945 41.6128 20.8945C42.507 20.8945 43.2297 21.6173 43.2297 22.5114C43.2297 23.4055 42.507 24.1282 41.6128 24.1282C38.515 24.1282 35.6564 25.6772 33.9668 28.2722C33.658 28.7475 33.1406 29.0062 32.6102 29.0062Z" fill="#004272"/>
<path d="M45.1975 24.1282C39.4658 24.1282 34.625 19.2874 34.625 13.5573C34.625 7.82716 39.4658 2.98633 45.1975 2.98633C50.9276 2.98633 55.7685 7.82716 55.7685 13.5573C55.7685 19.2874 50.9276 24.1282 45.1975 24.1282ZM45.1975 6.22002C41.2201 6.22002 37.8587 9.57982 37.8587 13.5573C37.8587 17.5347 41.2201 20.8945 45.1975 20.8945C49.175 20.8945 52.5348 17.5347 52.5348 13.5573C52.5348 9.57982 49.175 6.22002 45.1975 6.22002Z" fill="#004272"/>
<path d="M59.5255 34.8754C58.6314 34.8754 57.9086 34.1526 57.9086 33.2585C57.9086 28.2253 53.8132 24.1298 48.7799 24.1298C47.8858 24.1298 47.1631 23.4071 47.1631 22.513C47.1631 21.6188 47.8858 20.8961 48.7799 20.8961C55.5965 20.8961 61.1423 26.4435 61.1423 33.2585C61.1423 34.151 60.4196 34.8754 59.5255 34.8754Z" fill="#004272"/>
<path d="M48.7801 24.1282H41.6159C40.7218 24.1282 39.999 23.4055 39.999 22.5114C39.999 21.6173 40.7218 20.8945 41.6159 20.8945H48.7801C49.6742 20.8945 50.3969 21.6173 50.3969 22.5114C50.3969 23.4055 49.6726 24.1282 48.7801 24.1282Z" fill="#004272"/>
<path d="M59.525 40.2481C58.6309 40.2481 57.9082 39.5253 57.9082 38.6312V33.2584C57.9082 32.3643 58.6309 31.6416 59.525 31.6416C60.4192 31.6416 61.1419 32.3643 61.1419 33.2584V38.6312C61.1419 39.5253 60.4192 40.2481 59.525 40.2481Z" fill="#004272"/>
<path d="M1.61782 41.4413C0.723706 41.4413 0.000976562 40.7186 0.000976562 39.8244C0.000976562 31.032 7.1539 23.8807 15.9447 23.8807C16.8388 23.8807 17.5615 24.6035 17.5615 25.4976C17.5615 26.3917 16.8388 27.1144 15.9447 27.1144C8.93566 27.1144 3.23467 32.8154 3.23467 39.8244C3.23467 40.7186 2.51032 41.4413 1.61782 41.4413Z" fill="#004272"/>
<path d="M25.4963 27.1145H15.944C15.0499 27.1145 14.3271 26.3918 14.3271 25.4977C14.3271 24.6036 15.0499 23.8809 15.944 23.8809H25.4963C26.3904 23.8809 27.1132 24.6036 27.1132 25.4977C27.1132 26.3918 26.3904 27.1145 25.4963 27.1145Z" fill="#004272"/>
<path d="M1.61782 48.6056C0.723706 48.6056 0.000976562 47.8828 0.000976562 46.9887V39.8245C0.000976562 38.9304 0.723706 38.2076 1.61782 38.2076C2.51194 38.2076 3.23467 38.9304 3.23467 39.8245V46.9887C3.23467 47.8828 2.51032 48.6056 1.61782 48.6056Z" fill="#004272"/>
<path d="M20.7213 27.1145C13.3727 27.1145 7.16406 20.9058 7.16406 13.5572C7.16406 6.20868 13.3727 0 20.7213 0C28.0699 0 34.2785 6.20868 34.2785 13.5572C34.2785 20.9058 28.0699 27.1145 20.7213 27.1145ZM20.7213 3.23369C15.1254 3.23369 10.3978 7.96134 10.3978 13.5572C10.3978 19.1531 15.1254 23.8808 20.7213 23.8808C26.3172 23.8808 31.0449 19.1531 31.0449 13.5572C31.0449 7.96134 26.3172 3.23369 20.7213 3.23369Z" fill="#004272"/>
<path d="M39.8246 41.4414C38.9304 41.4414 38.2077 40.7187 38.2077 39.8246C38.2077 32.8155 32.5067 27.1145 25.4977 27.1145C24.6036 27.1145 23.8809 26.3918 23.8809 25.4977C23.8809 24.6036 24.6036 23.8809 25.4977 23.8809C34.2901 23.8809 41.4414 31.0338 41.4414 39.8246C41.4414 40.7187 40.7187 41.4414 39.8246 41.4414Z" fill="#004272"/>
<path d="M39.8239 48.6056C38.9298 48.6056 38.207 47.8828 38.207 46.9887V39.8245C38.207 38.9304 38.9298 38.2076 39.8239 38.2076C40.718 38.2076 41.4407 38.9304 41.4407 39.8245V46.9887C41.4407 47.8828 40.718 48.6056 39.8239 48.6056Z" fill="#004272"/>
<path d="M20.7211 53.3915C13.898 53.3915 7.07657 51.7326 0.856565 48.4164C0.0691618 47.9944 -0.229955 47.0163 0.190424 46.2272C0.612421 45.4415 1.58576 45.1423 2.37963 45.5611C13.8657 51.6873 27.5798 51.6873 39.0642 45.5611C39.8565 45.1423 40.833 45.4415 41.2534 46.2272C41.6738 47.0146 41.3747 47.9944 40.5873 48.4164C34.3657 51.731 27.5442 53.3915 20.7211 53.3915Z" fill="#004272"/>
</svg>
